<?xml version="1.0" standalone="no"?><svg xmlns="http://www.w3.org/2000/svg" viewBox="0 0 1440 320"><path fill="#0099ff" fill-opacity="1" d="M0,64L20,74.7C40,85,80,107,120,122.7C160,139,200,149,240,138.7C280,128,320,96,360,101.3C400,107,440,149,480,186.7C520,224,560,256,600,234.7C640,213,680,139,720,122.7C760,107,800,149,840,176C880,203,920,213,960,186.7C1000,160,1040,96,1080,69.3C1120,43,1160,53,1200,101.3C1240,149,1280,235,1320,245.3C1360,256,1400,192,1420,160L1440,128L1440,320L1420,320C1400,320,1360,320,1320,320C1280,320,1240,320,1200,320C1160,320,1120,320,1080,320C1040,320,1000,320,960,320C920,320,880,320,840,320C800,320,760,320,720,320C680,320,640,320,600,320C560,320,520,320,480,320C440,320,400,320,360,320C320,320,280,320,240,320C200,320,160,320,120,320C80,320,40,320,20,320L0,320Z"></path></svg>